<svg xmlns="http://www.w3.org/2000/svg" xmlns:xlink="http://www.w3.org/1999/xlink" width="2000" zoomAndPan="magnify" viewBox="0 0 1500 1499.999933" height="2000" preserveAspectRatio="xMidYMid meet" version="1.0"><defs><clipPath id="0feac754f7"><path d="M 374.648438 371 L 1125.398438 371 L 1125.398438 1129 L 374.648438 1129 Z M 374.648438 371 " clip-rule="nonzero"/></clipPath></defs><rect x="-150" width="1800" fill="#ffffff" y="-149.999993" height="1799.99992" fill-opacity="1"/><rect x="-150" width="1800" fill="#ffffff" y="-149.999993" height="1799.99992" fill-opacity="1"/><g clip-path="url(#0feac754f7)"><path fill="#cca300" d="M 1075.636719 1037.855469 C 1042.980469 960.640625 996.230469 891.296875 936.6875 831.753906 C 915.265625 810.328125 892.5625 790.574219 868.6875 772.515625 C 896.421875 752.421875 922.613281 730.058594 947.152344 705.535156 C 1006.695312 645.988281 1053.429688 576.660156 1086.101562 499.429688 C 1092.398438 484.535156 1098.109375 469.71875 1103.25 454.503906 C 1112.511719 427.074219 1119.886719 399.296875 1125.351562 371.003906 L 820.71875 371.003906 C 809.511719 401.148438 794.867188 428.945312 776.359375 454.503906 C 742.390625 501.4375 697.632812 539.511719 645.34375 565.238281 L 645.34375 371.019531 L 374.648438 371.019531 L 374.648438 951.78125 C 401.101562 943.507812 428.835938 938.308594 457.820312 936.609375 C 464.75 936.207031 471.449219 935.992188 478.472656 935.992188 C 578.542969 935.992188 668.910156 977.988281 733.390625 1044.925781 C 757.222656 1069.664062 777.363281 1098.1875 793.261719 1128.945312 L 1106.257812 1128.945312 C 1098.945312 1100.039062 1089.667969 1072.304688 1078.449219 1044.925781 C 1077.519531 1042.65625 1076.59375 1040.109375 1075.636719 1037.855469 Z M 840.9375 1045.28125 C 825.425781 1021.898438 807.722656 1000.675781 787.90625 980.875 C 747.699219 940.652344 700.859375 908.921875 648.691406 886.867188 C 642.917969 884.425781 637.101562 882.035156 631.25 879.84375 C 582.371094 861.585938 531.515625 852.292969 478.71875 852.292969 C 471.710938 852.292969 465.089844 852.417969 458.316406 852.742188 L 458.316406 454.6875 L 561.675781 454.6875 L 561.675781 679.203125 C 585.675781 675.113281 610.277344 668.878906 634.058594 660.542969 C 637.671875 659.277344 640.972656 657.964844 644.554688 656.59375 C 649.539062 654.695312 654.371094 652.703125 659.308594 650.621094 C 711.476562 628.550781 758.242188 597.171875 798.445312 556.96875 C 828.972656 526.4375 854.441406 492.222656 874.644531 454.703125 L 1013.949219 454.703125 C 969.976562 565.441406 891.757812 659.464844 792.394531 723.113281 C 763.195312 741.820312 732.171875 757.808594 699.636719 770.941406 C 731.863281 784.742188 762.5625 801.71875 791.394531 820.996094 C 874.75 876.773438 942.519531 954.234375 986.601562 1045.28125 Z M 840.9375 1045.28125 " fill-opacity="1" fill-rule="nonzero"/></g></svg>